<svg width="60" height="60" viewBox="0 0 60 60" fill="none" xmlns="http://www.w3.org/2000/svg">
<g clip-path="url(#clip0)">
<path d="M30.0832 59.6156C46.2651 59.6156 59.3832 46.4976 59.3832 30.3156C59.3832 14.1337 46.2651 1.01562 30.0832 1.01562C13.9013 1.01562 0.783203 14.1337 0.783203 30.3156C0.783203 46.4976 13.9013 59.6156 30.0832 59.6156Z" fill="white" stroke="#B3B3B3" stroke-width="0.25" stroke-miterlimit="10"/>
<path d="M7.08301 29.016H7.88301V29.416C7.98301 29.216 8.18301 29.116 8.48301 29.016C8.78301 29.016 9.18301 28.916 9.68301 28.916C10.383 28.916 10.983 29.016 11.283 29.116C11.583 29.216 11.883 29.416 11.983 29.616C12.083 29.416 12.283 29.216 12.583 29.116C12.883 29.016 13.383 28.916 13.983 28.916C14.583 28.916 15.083 28.916 15.383 29.016C15.683 29.116 15.983 29.216 16.183 29.416C16.283 29.616 16.383 29.816 16.483 30.016C16.483 30.216 16.583 30.616 16.583 31.116V33.516H15.683V31.016C15.683 30.516 15.583 30.116 15.483 30.016C15.283 29.816 14.783 29.716 14.083 29.716C13.683 29.716 13.283 29.716 13.083 29.816C12.883 29.916 12.683 29.916 12.583 30.116C12.483 30.216 12.383 30.416 12.383 30.716C12.383 30.916 12.283 31.316 12.283 31.916V33.716H11.483V31.216C11.483 30.916 11.483 30.716 11.483 30.516C11.483 30.416 11.383 30.216 11.283 30.216C11.083 30.016 10.583 29.916 9.88301 29.916C9.48301 29.916 9.08301 29.916 8.88301 30.016C8.68301 30.116 8.48301 30.216 8.38301 30.316C8.28301 30.416 8.18301 30.616 8.18301 30.816C8.18301 31.016 8.08301 31.416 8.08301 32.016V33.816H7.08301V29.016Z" fill="#134A9F"/>
<path d="M19.9832 28.916C20.6832 28.916 21.1832 28.916 21.5832 29.016C21.8832 29.016 22.1832 29.116 22.3832 29.216C22.6832 29.416 22.8832 29.616 22.9832 29.916C23.0832 30.216 23.1832 30.616 23.1832 31.216C23.1832 31.816 23.0832 32.216 22.9832 32.616C22.8832 32.816 22.6832 33.016 22.4832 33.216C22.2832 33.316 22.0832 33.416 21.7832 33.516C21.4832 33.616 20.9832 33.616 20.3832 33.616C19.7832 33.616 19.2832 33.616 18.9832 33.516C18.6832 33.516 18.3832 33.416 18.1832 33.316C17.8832 33.116 17.6832 32.916 17.4832 32.616C17.3832 32.316 17.2832 31.816 17.2832 31.316C17.2832 30.716 17.3832 30.216 17.5832 29.916C17.7832 29.616 18.0832 29.316 18.3832 29.216C18.5832 29.016 19.1832 28.916 19.9832 28.916ZM20.0832 29.616C19.5832 29.616 19.2832 29.616 19.0832 29.616C18.8832 29.616 18.6832 29.716 18.5832 29.816C18.3832 29.916 18.2832 30.116 18.2832 30.316C18.1832 30.516 18.1832 30.816 18.1832 31.216C18.1832 31.616 18.1832 32.016 18.2832 32.216C18.3832 32.416 18.5832 32.616 18.7832 32.616C19.0832 32.716 19.5832 32.716 20.2832 32.716C20.7832 32.716 21.1832 32.716 21.3832 32.616C21.5832 32.616 21.7832 32.516 21.8832 32.416C21.9832 32.316 22.1832 32.116 22.1832 31.916C22.2832 31.716 22.2832 31.416 22.2832 31.016C22.2832 30.516 22.1832 30.216 22.0832 30.016C21.9832 29.816 21.7832 29.616 21.4832 29.516C21.2832 29.716 20.7832 29.616 20.0832 29.616Z" fill="#134A9F"/>
<path d="M23.7832 27.1152H24.6832V29.6152H24.5832C24.7832 29.4152 24.9832 29.2152 25.1832 29.1152C25.4832 29.0152 25.8832 29.0152 26.5832 29.0152C27.2832 29.0152 27.8832 29.0152 28.1832 29.1152C28.4832 29.1152 28.7832 29.2152 28.9832 29.4152C29.2832 29.6152 29.3832 29.8152 29.4832 30.1152C29.5832 30.4152 29.6832 30.8152 29.6832 31.4152C29.6832 32.0152 29.5832 32.5152 29.3832 32.8152C29.0832 33.2152 28.6832 33.5152 27.9832 33.6152C27.6832 33.6152 27.2832 33.7152 26.6832 33.7152C25.9832 33.7152 25.4832 33.7152 25.1832 33.6152C24.8832 33.5152 24.6832 33.4152 24.4832 33.1152H24.5832V33.7152H23.7832V27.1152ZM26.5832 29.6152C26.0832 29.6152 25.7832 29.6152 25.5832 29.7152C25.3832 29.7152 25.1832 29.8152 25.0832 29.9152C24.8832 30.0152 24.7832 30.2152 24.7832 30.4152C24.7832 30.6152 24.6832 30.9152 24.6832 31.3152C24.6832 31.8152 24.7832 32.2152 24.8832 32.4152C24.9832 32.6152 25.1832 32.8152 25.4832 32.8152C25.7832 32.9152 26.2832 32.9152 27.0832 32.9152C27.4832 32.9152 27.7832 32.9152 27.9832 32.8152C28.1832 32.8152 28.3832 32.7152 28.4832 32.6152C28.5832 32.5152 28.6832 32.4152 28.7832 32.1152C28.8832 31.8152 28.8832 31.6152 28.8832 31.2152C28.8832 30.7152 28.7832 30.3152 28.6832 30.1152C28.5832 29.9152 28.3832 29.7152 28.0832 29.7152C27.7832 29.7152 27.2832 29.6152 26.5832 29.6152Z" fill="#134A9F"/>
<path d="M31.1828 27.416H30.3828V28.316H31.1828V27.416Z" fill="#E12728"/>
<path d="M31.1828 29.0156H30.3828V33.5156H31.1828V29.0156Z" fill="#134A9F"/>
<path d="M31.3828 29.0152H32.0828C32.0828 28.6152 32.0828 28.3152 32.1828 28.1152C32.1828 27.9152 32.2828 27.7152 32.4828 27.6152C32.6828 27.4152 32.8828 27.3152 33.0828 27.2152C33.3828 27.1152 33.7828 27.1152 34.2828 27.1152H35.2828L34.2828 27.8152C33.8828 27.8152 33.6828 27.8152 33.4828 27.9152C33.2828 27.9152 33.1828 28.0152 33.0828 28.1152C32.9828 28.2152 32.9828 28.3152 32.9828 28.4152C32.9828 28.5152 32.9828 28.7152 32.9828 29.1152H35.1828L34.3828 29.8152H32.9828V33.6152H32.1828V29.8152H31.4828V29.0152H31.3828Z" fill="#E12728"/>
<path d="M37.1834 28.916C37.8834 28.916 38.3834 28.916 38.7834 29.016C39.0834 29.016 39.3834 29.116 39.5834 29.216C39.8834 29.416 40.0834 29.616 40.1834 29.916C40.2834 30.216 40.3834 30.616 40.3834 31.216C40.3834 31.816 40.2834 32.216 40.1834 32.616C40.0834 32.816 39.8834 33.016 39.6834 33.216C39.4834 33.316 39.2834 33.416 38.9834 33.516C38.6834 33.616 38.1834 33.616 37.5834 33.616C36.9834 33.616 36.4834 33.616 36.1834 33.516C35.8834 33.516 35.5834 33.416 35.3834 33.316C35.0834 33.116 34.8834 32.916 34.6834 32.616C34.5834 32.316 34.4834 31.816 34.4834 31.316C34.4834 30.716 34.5834 30.216 34.7834 29.916C34.9834 29.616 35.2834 29.316 35.5834 29.216C35.7834 29.016 36.3834 28.916 37.1834 28.916ZM37.2834 29.616C36.7834 29.616 36.4834 29.616 36.2834 29.616C36.0834 29.616 35.8834 29.716 35.7834 29.816C35.5834 29.916 35.4834 30.116 35.4834 30.316C35.3834 30.516 35.3834 30.816 35.3834 31.216C35.3834 31.616 35.3834 32.016 35.4834 32.216C35.5834 32.416 35.7834 32.616 35.9834 32.616C36.2834 32.716 36.7834 32.716 37.4834 32.716C37.9834 32.716 38.3834 32.716 38.5834 32.616C38.7834 32.616 38.9834 32.516 39.0834 32.416C39.1834 32.316 39.3834 32.116 39.3834 31.916C39.4834 31.716 39.4834 31.416 39.4834 31.016C39.4834 30.516 39.3834 30.216 39.2834 30.016C39.1834 29.816 38.9834 29.616 38.6834 29.516C38.4834 29.716 37.9834 29.616 37.2834 29.616Z" fill="#E12728"/>
<path d="M40.9834 29.016H41.7834V29.716H41.6834C41.7834 29.416 42.0834 29.216 42.3834 29.116C42.6834 29.016 43.1834 28.916 43.9834 28.916C44.5834 28.916 45.0834 28.916 45.3834 29.016C45.6834 29.116 45.9834 29.216 46.1834 29.416C46.2834 29.616 46.3834 29.716 46.4834 30.016C46.5834 30.216 46.5834 30.516 46.5834 31.016V33.516H45.7834V31.316C45.7834 30.916 45.7834 30.616 45.7834 30.516C45.7834 30.316 45.6834 30.216 45.5834 30.116C45.4834 30.016 45.2834 29.916 45.0834 29.816C44.8834 29.716 44.4834 29.716 43.9834 29.716C43.4834 29.716 43.0834 29.716 42.7834 29.816C42.4834 29.916 42.2834 30.016 42.1834 30.216C42.0834 30.316 41.9834 30.516 41.9834 30.616C41.9834 30.816 41.9834 31.016 41.9834 31.516V33.616H41.1834V29.016H40.9834Z" fill="#E12728"/>
<path d="M52.1832 32.0145H53.0832C53.0832 32.6145 52.8832 33.0145 52.4832 33.2145C52.0832 33.4145 51.4832 33.5145 50.5832 33.5145C49.8832 33.5145 49.2832 33.5145 48.8832 33.4145C48.4832 33.3145 48.1832 33.2145 47.9832 33.1145C47.4832 32.8145 47.2832 32.1145 47.2832 31.2145C47.2832 30.5145 47.3832 30.0145 47.5832 29.7145C47.7832 29.4145 48.0832 29.2145 48.3832 29.0145C48.7832 28.9145 49.2832 28.8145 50.0832 28.8145C50.8832 28.8145 51.3832 28.8145 51.7832 28.9145C52.1832 29.0145 52.3832 29.1145 52.5832 29.4145C52.7832 29.6145 52.8832 29.8145 52.9832 30.1145C53.0832 30.4145 53.0832 30.8145 53.0832 31.3145H48.1832C48.1832 31.8145 48.2832 32.2145 48.4832 32.4145C48.5832 32.5145 48.7832 32.6145 49.0832 32.7145C49.3832 32.7145 49.7832 32.8145 50.4832 32.8145C50.9832 32.8145 51.2832 32.8145 51.5832 32.7145C51.7832 32.7145 51.9832 32.6145 52.0832 32.5145C52.0832 32.4145 52.1832 32.3145 52.1832 32.0145ZM52.1832 30.8145C52.1832 30.4145 52.0832 30.1145 51.8832 30.0145C51.7832 29.9145 51.5832 29.8145 51.2832 29.8145C50.9832 29.8145 50.6832 29.7145 50.0832 29.7145C49.6832 29.7145 49.2832 29.7145 49.0832 29.8145C48.8832 29.8145 48.6832 29.9145 48.5832 30.0145C48.3832 30.2145 48.2832 30.4145 48.1832 30.9145H52.1832V30.8145Z" fill="#E12728"/>
</g>
<defs>
<clipPath id="clip0">
<rect width="58.8" height="58.8" fill="white" transform="translate(0.683594 0.916016)"/>
</clipPath>
</defs>
</svg>
