<svg width="60" height="60" viewBox="0 0 60 60" fill="none" xmlns="http://www.w3.org/2000/svg">
<g clip-path="url(#clip0)">
<path d="M29.9777 59.6156C46.1597 59.6156 59.2777 46.4976 59.2777 30.3156C59.2777 14.1337 46.1597 1.01562 29.9777 1.01562C13.7958 1.01562 0.677734 14.1337 0.677734 30.3156C0.677734 46.4976 13.7958 59.6156 29.9777 59.6156Z" fill="white" stroke="#B3B3B3" stroke-width="0.25" stroke-miterlimit="10"/>
<path d="M7.77832 26.3159C8.07832 25.9159 8.37832 25.6159 8.77832 25.2159C11.0783 22.8159 13.8783 21.0159 16.8783 19.7159C19.3783 18.6159 21.9783 17.9159 24.5783 17.5159C26.6783 17.2159 28.7783 17.0159 30.8783 17.1159C35.8783 17.2159 40.7783 18.3159 45.2783 20.6159C47.4783 21.7159 49.4783 23.2159 51.2783 24.9159C51.3783 25.0159 51.3783 25.0159 51.3783 25.1159C51.2783 25.1159 51.2783 25.1159 51.2783 25.0159C49.2783 23.3159 46.9783 22.3159 44.4783 21.6159C42.3783 21.0159 40.1783 20.8159 37.9783 20.9159C34.8783 21.0159 31.8783 21.7159 29.0783 23.2159C27.7783 23.9159 26.4783 24.8159 25.4783 25.9159C25.3783 26.0159 25.2783 26.0159 25.1783 26.0159C19.3783 26.0159 13.6783 26.0159 7.87832 26.0159C7.87832 26.3159 7.87832 26.3159 7.77832 26.3159Z" fill="#01918C"/>
<path d="M52.3777 34.3164C51.6777 35.1164 51.0777 35.8164 50.2777 36.5164C47.1777 39.3164 43.4777 41.1164 39.4777 42.2164C37.2777 42.8164 35.0777 43.2164 32.8777 43.4164C31.2777 43.5164 29.7777 43.6164 28.1777 43.5164C25.9777 43.4164 23.7777 43.1164 21.6777 42.6164C18.5777 41.8164 15.6777 40.7164 12.9777 39.0164C11.4777 38.1164 10.1777 37.0164 8.87773 35.8164C8.77773 35.7164 8.67773 35.7164 8.67773 35.6164C8.77773 35.6164 8.77773 35.6164 8.77773 35.6164C10.7777 37.3164 13.1777 38.4164 15.7777 39.0164C17.9777 39.5164 20.2777 39.7164 22.5777 39.6164C25.6777 39.4164 28.5777 38.6164 31.2777 37.1164C32.4777 36.4164 33.4777 35.6164 34.3777 34.6164C34.4777 34.5164 34.5777 34.4164 34.6777 34.4164C40.4777 34.4164 46.1777 34.4164 51.9777 34.4164C52.2777 34.3164 52.2777 34.3164 52.3777 34.3164Z" fill="#D48431"/>
<path d="M45.5783 32.3167C43.6783 32.3167 41.8783 32.3167 39.9783 32.3167C39.8783 32.3167 39.6783 32.3167 39.5783 32.3167C39.1783 32.3167 39.0783 32.1167 39.0783 31.7167C39.0783 31.3167 39.0783 30.9167 39.0783 30.5167C39.0783 30.1167 38.7783 29.7167 38.3783 29.7167C37.8783 29.7167 37.3783 29.7167 36.8783 29.7167C36.4783 29.7167 36.0783 30.1167 36.0783 30.6167C36.0783 31.0167 36.0783 31.4167 36.0783 31.8167C36.0783 32.0167 35.9783 32.1167 35.8783 32.2167C35.2783 32.4167 34.5783 32.5167 33.9783 32.2167C33.7783 32.1167 33.6783 32.0167 33.6783 31.8167C33.6783 31.4167 33.6783 31.0167 33.6783 30.6167C33.6783 30.1167 33.4783 29.8167 32.9783 29.8167C32.2783 29.7167 31.5783 29.7167 30.8783 29.8167C30.3783 29.8167 30.1783 30.2167 30.1783 30.6167C30.1783 31.0167 30.1783 31.4167 30.1783 31.8167C30.1783 32.0167 30.0783 32.1167 29.9783 32.2167C29.2783 32.5167 28.6783 32.5167 27.9783 32.2167C27.8783 32.1167 27.7783 32.0167 27.7783 31.8167C27.7783 31.4167 27.7783 31.0167 27.7783 30.6167C27.7783 30.1167 27.5783 29.8167 26.9783 29.7167C26.8783 29.7167 26.6783 29.7167 26.5783 29.7167C24.6783 29.7167 22.7783 29.7167 20.8783 29.7167C20.7783 29.7167 20.6783 29.6167 20.6783 29.8167C20.6783 30.0167 20.7783 30.1167 20.8783 30.1167C20.9783 30.1167 21.1783 30.1167 21.2783 30.1167C22.1783 30.1167 23.1783 30.1167 24.0783 30.1167C24.1783 30.1167 24.2783 30.0167 24.3783 30.2167C24.4783 30.4167 24.3783 30.7167 24.1783 30.8167C24.0783 30.9167 23.8783 30.9167 23.7783 30.9167C22.8783 30.9167 21.8783 30.9167 20.9783 30.9167C20.8783 30.9167 20.6783 30.8167 20.6783 31.0167C20.6783 31.3167 20.6783 31.5167 20.8783 31.5167C20.9783 31.5167 21.1783 31.5167 21.2783 31.5167C22.3783 31.5167 23.3783 31.5167 24.4783 31.5167C24.5783 31.5167 24.7783 31.4167 24.7783 31.6167C24.7783 31.8167 24.8783 32.0167 24.6783 32.1167C24.4783 32.3167 24.1783 32.3167 23.8783 32.3167C22.4783 32.3167 21.0783 32.3167 19.7783 32.3167C19.4783 32.3167 19.0783 32.3167 18.7783 32.3167C18.3783 32.2167 18.2783 32.1167 18.2783 31.7167C18.2783 31.0167 18.2783 30.2167 18.2783 29.5167C18.2783 29.1167 18.3783 29.0167 18.7783 28.9167C18.8783 28.9167 19.0783 28.9167 19.1783 28.9167C21.8783 28.9167 24.5783 28.9167 27.2783 28.9167C27.6783 28.9167 27.6783 28.9167 27.7783 28.5167C27.7783 28.4167 27.8783 28.3167 27.9783 28.2167C28.5783 28.0167 29.1783 27.9167 29.7783 28.2167C29.9783 28.3167 30.0783 28.4167 30.1783 28.6167C30.1783 28.8167 30.2783 28.9167 30.5783 28.9167C31.4783 28.9167 32.4783 28.9167 33.3783 28.9167C33.5783 28.9167 33.7783 28.8167 33.7783 28.6167C33.7783 28.4167 33.8783 28.3167 34.0783 28.2167C34.6783 28.0167 35.2783 27.9167 35.8783 28.2167C36.0783 28.3167 36.1783 28.4167 36.2783 28.6167C36.2783 28.8167 36.4783 28.9167 36.6783 28.9167C37.2783 28.9167 37.8783 28.9167 38.3783 28.9167C40.7783 28.9167 43.0783 28.9167 45.4783 28.9167C45.5783 28.9167 45.6783 28.8167 45.7783 29.0167C45.8783 29.2167 45.7783 29.5167 45.6783 29.5167C45.4783 29.6167 45.1783 29.6167 44.9783 29.6167C43.9783 29.6167 43.0783 29.6167 42.0783 29.6167C41.9783 29.6167 41.8783 29.5167 41.7783 29.7167C41.7783 29.9167 41.7783 30.1167 41.9783 30.1167C42.0783 30.1167 42.2783 30.1167 42.3783 30.1167C43.2783 30.1167 44.2783 30.1167 45.1783 30.1167C45.2783 30.1167 45.4783 30.0167 45.4783 30.2167C45.5783 30.5167 45.4783 30.7167 45.2783 30.8167C45.1783 30.8167 45.0783 30.8167 44.9783 30.8167C43.9783 30.8167 43.0783 30.8167 42.0783 30.8167C41.9783 30.8167 41.7783 30.7167 41.7783 30.9167C41.7783 31.2167 41.7783 31.4167 42.0783 31.4167C42.1783 31.4167 42.2783 31.4167 42.3783 31.4167C43.5783 31.4167 44.8783 31.4167 46.0783 31.4167C46.2783 31.4167 46.2783 31.4167 46.2783 31.2167C46.2783 30.6167 46.2783 29.9167 46.2783 29.3167C46.2783 29.0167 46.3783 28.8167 46.6783 28.8167C47.1783 28.7167 47.7783 28.7167 48.2783 28.9167C48.5783 29.0167 48.6783 29.1167 48.6783 29.5167C48.6783 29.9167 48.6783 30.4167 48.6783 30.8167C48.6783 31.3167 48.8783 31.5167 49.3783 31.5167C50.2783 31.5167 51.1783 31.5167 52.0783 31.5167C52.1783 31.5167 52.3783 31.4167 52.3783 31.6167C52.3783 31.8167 52.4783 32.0167 52.2783 32.2167C52.0783 32.4167 51.8783 32.4167 51.5783 32.4167C51.0783 32.4167 50.4783 32.4167 49.9783 32.4167C48.3783 32.3167 46.9783 32.3167 45.5783 32.3167Z" fill="#01918C"/>
<path d="M14.9781 30.0152C14.5781 30.5152 14.0781 31.0152 13.6781 31.5152C13.3781 32.0152 12.9781 32.2152 12.3781 32.2152C11.7781 32.3152 11.0781 32.3152 10.4781 32.1152C10.1781 32.0152 9.97813 31.9152 9.87813 31.7152C9.17813 30.8152 8.37812 29.9152 7.67812 29.0152C7.67812 28.9152 7.57812 28.9152 7.57812 28.8152C8.37813 28.8152 9.07813 28.7152 9.87813 28.9152C10.1781 29.0152 10.3781 29.1152 10.5781 29.4152C10.9781 30.0152 11.3781 30.5152 11.7781 31.1152C11.8781 31.2152 11.8781 31.3152 12.0781 31.1152C12.4781 30.5152 12.8781 29.9152 13.2781 29.3152C13.4781 29.0152 13.7781 28.8152 14.0781 28.8152C15.0781 28.7152 16.0781 28.7152 17.0781 28.8152C17.1781 28.8152 17.2781 28.9152 17.3781 28.9152C17.5781 29.0152 17.6781 29.1152 17.6781 29.3152C17.6781 30.1152 17.6781 30.8152 17.6781 31.6152C17.6781 31.8152 17.5781 31.9152 17.4781 32.0152C16.8781 32.3152 16.2781 32.3152 15.5781 32.1152C15.3781 32.0152 15.2781 31.9152 15.2781 31.6152C15.0781 31.1152 15.0781 30.6152 14.9781 30.0152C15.0781 30.0152 15.0781 30.0152 14.9781 30.0152Z" fill="#01918C"/>
<path d="M8.67852 35.4168C8.57852 35.4168 8.47852 35.3168 8.47852 35.2168C8.67852 35.2168 8.67852 35.3168 8.67852 35.4168C8.77852 35.3168 8.77852 35.3168 8.67852 35.4168Z" fill="#D48431"/>
<path d="M8.37773 35.0164C8.27773 34.9164 8.27773 34.9164 8.37773 35.0164C8.37773 34.9164 8.37773 35.0164 8.37773 35.0164Z" fill="#D48431"/>
<path d="M8.57793 35.2156C8.47793 35.1156 8.47793 35.1156 8.57793 35.2156C8.47793 35.1156 8.57793 35.1156 8.57793 35.2156Z" fill="#D48431"/>
</g>
<defs>
<clipPath id="clip0">
<rect width="58.8" height="58.8" fill="white" transform="translate(0.578125 0.916016)"/>
</clipPath>
</defs>
</svg>
