<svg width="60" height="60" viewBox="0 0 60 60" fill="none" xmlns="http://www.w3.org/2000/svg">
<g clip-path="url(#clip0)">
<path d="M29.927 59.6156C46.1089 59.6156 59.227 46.4976 59.227 30.3156C59.227 14.1337 46.1089 1.01562 29.927 1.01562C13.745 1.01562 0.626953 14.1337 0.626953 30.3156C0.626953 46.4976 13.745 59.6156 29.927 59.6156Z" fill="white" stroke="#B3B3B3" stroke-width="0.25" stroke-miterlimit="10"/>
<path d="M28.7268 21.416C28.9268 21.516 29.1268 21.516 29.3268 21.616C30.4268 22.016 31.2268 23.016 31.3268 24.216C31.3268 24.916 31.2268 25.616 30.8268 26.216C29.1268 29.116 27.4268 32.016 25.7268 34.916C25.2268 35.816 24.7268 36.716 24.1268 37.616C23.4268 38.716 22.5268 39.216 21.2268 39.216C20.4268 39.216 19.7268 38.916 19.1268 38.316C19.1268 38.216 19.1268 38.216 19.0268 38.216C18.6268 37.616 18.4268 37.016 18.4268 36.316C18.4268 35.716 18.6268 35.116 18.9268 34.616C19.5268 33.616 20.1268 32.616 20.7268 31.616C21.0268 31.216 21.2268 30.716 21.4268 30.316C21.4268 30.216 21.5268 30.216 21.5268 30.116C22.9268 27.816 24.2268 25.516 25.6268 23.216C26.1268 22.416 26.8268 21.916 27.7268 21.616C27.9268 21.616 28.0268 21.516 28.2268 21.516C28.2268 21.416 28.5268 21.416 28.7268 21.416Z" fill="#EA8932"/>
<path d="M37.2271 21.416C37.5271 21.516 37.7271 21.516 38.0271 21.616C39.0271 22.016 39.6271 22.816 39.8271 23.916C39.9271 24.716 39.8271 25.416 39.3271 26.116C37.1271 29.916 34.9271 33.616 32.6271 37.416C32.1271 38.316 31.2271 38.916 30.2271 39.116C28.6271 39.416 27.1271 38.316 26.8271 36.716C26.7271 35.916 26.8271 35.116 27.2271 34.416C28.8271 31.716 30.4271 29.016 31.9271 26.416C32.5271 25.316 33.2271 24.216 33.8271 23.216C34.4271 22.216 35.2271 21.616 36.3271 21.516C36.3271 21.516 36.3271 21.516 36.4271 21.516C36.7271 21.416 37.0271 21.416 37.2271 21.416Z" fill="#EA8932"/>
<path d="M45.927 21.416C46.127 21.516 46.327 21.516 46.627 21.616C47.727 22.016 48.427 22.816 48.627 24.016C48.727 24.816 48.627 25.616 48.127 26.316C46.127 29.716 44.127 33.016 42.127 36.416C41.827 36.916 41.527 37.516 41.227 37.916C40.527 38.816 39.627 39.216 38.527 39.216C37.027 39.216 35.727 38.116 35.627 36.616C35.527 35.816 35.727 35.116 36.127 34.516C38.327 30.716 40.527 27.016 42.827 23.216C43.427 22.216 44.227 21.716 45.327 21.516C45.327 21.516 45.327 21.516 45.427 21.516C45.427 21.416 45.627 21.416 45.927 21.416Z" fill="#EA8932"/>
<path d="M21.3268 30.116C21.1268 30.516 20.8268 31.016 20.6268 31.416C20.0268 32.416 19.4268 33.416 18.8268 34.416C18.5268 34.916 18.3268 35.516 18.3268 36.116C18.3268 36.816 18.5268 37.516 18.9268 38.016L19.0268 38.116C18.9268 38.016 18.8268 37.916 18.7268 37.816C18.3268 37.316 18.0268 36.716 17.7268 36.216C16.0268 33.416 14.3268 30.516 12.7268 27.716C12.4268 27.216 12.1268 26.716 11.8268 26.116C11.6268 25.716 11.4268 25.316 11.4268 24.816C11.4268 24.816 11.4268 24.816 11.4268 24.716C11.4268 24.516 11.4268 24.316 11.4268 24.116V24.016C11.6268 22.916 12.2268 22.016 13.2268 21.616C13.5268 21.516 13.7268 21.516 14.0268 21.416C14.2268 21.416 14.4268 21.416 14.7268 21.416C14.7268 21.416 14.7268 21.416 14.8268 21.416C15.9268 21.616 16.7268 22.116 17.3268 23.116C18.0268 24.416 18.8268 25.616 19.5268 26.916C20.0268 28.016 20.7268 29.116 21.3268 30.116Z" fill="#8A9298"/>
</g>
<defs>
<clipPath id="clip0">
<rect width="58.8" height="58.8" fill="white" transform="translate(0.527344 0.916016)"/>
</clipPath>
</defs>
</svg>
