<svg width="60" height="60" viewBox="0 0 60 60" fill="none" xmlns="http://www.w3.org/2000/svg">
<g clip-path="url(#clip0)">
<path d="M30.2551 59.6156C46.437 59.6156 59.5551 46.4976 59.5551 30.3156C59.5551 14.1337 46.437 1.01562 30.2551 1.01562C14.0731 1.01562 0.955078 14.1337 0.955078 30.3156C0.955078 46.4976 14.0731 59.6156 30.2551 59.6156Z" fill="white" stroke="#B3B3B3" stroke-width="0.25" stroke-miterlimit="10"/>
<path d="M11.1547 30.7148L9.85469 34.3148H8.85469L7.55469 30.7148H8.65469L9.45469 33.4148L10.2547 30.7148H11.1547Z" fill="#308BE3"/>
<path d="M12.7549 29.4141V30.3141H11.7549V29.4141H12.7549ZM11.7549 30.7141H12.7549V34.3141H11.7549V30.7141Z" fill="#308BE3"/>
<path d="M17.0549 31.8133V34.3133H16.0549V32.1133C16.0549 31.9133 16.0549 31.8133 15.9549 31.7133C15.8549 31.5133 15.6549 31.4133 15.4549 31.4133C15.2549 31.4133 15.0549 31.5133 14.9549 31.6133C14.8549 31.7133 14.7549 31.9133 14.7549 32.2133V34.3133H13.7549V30.7133H14.6549V31.2133C14.7549 31.0133 14.8549 30.9133 14.9549 30.8133C15.1549 30.6133 15.4549 30.6133 15.7549 30.6133C16.1549 30.6133 16.4549 30.7133 16.6549 30.9133C16.9549 31.1133 17.0549 31.4133 17.0549 31.8133Z" fill="#308BE3"/>
<path d="M21.0551 34.2148V34.3148H20.1551C20.1551 34.1148 20.1551 34.3148 20.1551 34.1148C20.1551 34.1148 20.1551 34.0148 20.1551 33.9148C20.0551 34.1148 19.8551 34.2148 19.7551 34.2148C19.5551 34.3148 19.2551 34.4148 19.0551 34.4148C18.7551 34.4148 18.4551 34.3148 18.2551 34.2148C18.0551 34.0148 17.9551 33.7148 17.9551 33.4148C17.9551 33.1148 18.0551 32.8148 18.2551 32.6148C18.4551 32.4148 18.6551 32.3148 18.9551 32.3148L19.8551 32.2148C19.9551 32.2148 20.0551 32.1148 20.1551 32.1148C20.1551 32.1148 20.2551 32.0148 20.2551 31.9148C20.2551 31.7148 20.1551 31.6148 20.0551 31.5148C19.9551 31.5148 19.8551 31.4148 19.6551 31.4148C19.4551 31.4148 19.2551 31.5148 19.1551 31.6148C19.0551 31.7148 19.0551 31.8148 19.0551 31.9148H18.1551C18.1551 31.4148 18.3551 31.0148 18.7551 30.9148C18.9551 30.8148 19.3551 30.7148 19.7551 30.7148C20.1551 30.7148 20.4551 30.8148 20.6551 30.9148C21.0551 31.1148 21.1551 31.4148 21.1551 31.8148V33.8148L21.0551 34.2148ZM20.1551 33.0148V32.5148C20.0551 32.5148 20.0551 32.6148 19.9551 32.6148C19.8551 32.6148 19.7551 32.7148 19.5551 32.7148C19.3551 32.7148 19.1551 32.8148 19.1551 32.8148C19.0551 32.9148 18.9551 33.0148 18.9551 33.2148C18.9551 33.3148 18.9551 33.5148 19.0551 33.5148C19.1551 33.6148 19.2551 33.6148 19.3551 33.6148C19.5551 33.6148 19.7551 33.5148 19.9551 33.4148C20.0551 33.4148 20.1551 33.2148 20.1551 33.0148Z" fill="#308BE3"/>
<path d="M22.9551 30.7133V31.2133C23.0551 31.0133 23.2551 30.9133 23.3551 30.8133C23.5551 30.7133 23.7551 30.6133 24.0551 30.6133C24.4551 30.6133 24.8551 30.8133 25.0551 31.1133C25.3551 31.4133 25.5551 31.9133 25.5551 32.5133C25.5551 33.0133 25.4551 33.5133 25.1551 33.8133C24.8551 34.2133 24.4551 34.4133 23.9551 34.4133C23.6551 34.4133 23.4551 34.3133 23.2551 34.2133C23.1551 34.1133 23.0551 34.0133 22.9551 33.8133V35.7133H21.9551V30.7133H22.9551ZM22.9551 32.6133C22.9551 32.9133 23.0551 33.1133 23.1551 33.3133C23.2551 33.5133 23.5551 33.6133 23.8551 33.6133C24.1551 33.6133 24.3551 33.5133 24.4551 33.2133C24.5551 33.0133 24.6551 32.8133 24.6551 32.5133C24.6551 32.2133 24.5551 31.9133 24.4551 31.7133C24.3551 31.5133 24.0551 31.4133 23.8551 31.4133C23.5551 31.4133 23.3551 31.5133 23.1551 31.8133C22.9551 32.0133 22.9551 32.2133 22.9551 32.6133Z" fill="#308BE3"/>
<path d="M29.6545 31.8141V34.3141H28.6545V32.1141C28.6545 31.9141 28.6545 31.8141 28.5545 31.7141C28.4545 31.5141 28.2545 31.4141 28.0545 31.4141C27.8545 31.4141 27.6545 31.5141 27.5545 31.6141C27.4545 31.7141 27.3545 31.9141 27.3545 32.2141V34.3141H26.3545V29.4141H27.3545V31.1141C27.4545 30.9141 27.5545 30.8141 27.7545 30.7141C27.9545 30.6141 28.1545 30.5141 28.4545 30.5141C28.8545 30.5141 29.1545 30.6141 29.3545 30.8141C29.5545 31.1141 29.6545 31.4141 29.6545 31.8141Z" fill="#308BE3"/>
<path d="M34.2551 32.5133C34.2551 33.1133 34.0551 33.6133 33.6551 33.9133C33.3551 34.2133 32.8551 34.4133 32.3551 34.4133C31.8551 34.4133 31.4551 34.2133 31.0551 33.9133C30.6551 33.6133 30.4551 33.1133 30.4551 32.5133C30.4551 31.9133 30.6551 31.4133 31.0551 31.1133C31.3551 30.8133 31.8551 30.6133 32.3551 30.6133C32.8551 30.6133 33.3551 30.8133 33.6551 31.1133C34.0551 31.4133 34.2551 31.9133 34.2551 32.5133ZM33.2551 32.5133C33.2551 32.2133 33.1551 32.0133 33.0551 31.8133C32.9551 31.5133 32.6551 31.4133 32.3551 31.4133C32.0551 31.4133 31.7551 31.5133 31.6551 31.8133C31.5551 32.0133 31.4551 32.2133 31.4551 32.5133C31.4551 32.8133 31.5551 33.0133 31.6551 33.2133C31.7551 33.5133 32.0551 33.6133 32.3551 33.6133C32.6551 33.6133 32.9551 33.5133 33.0551 33.2133C33.2551 33.0133 33.2551 32.8133 33.2551 32.5133Z" fill="#308BE3"/>
<path d="M38.1545 31.8133V34.3133H37.1545V32.1133C37.1545 31.9133 37.1545 31.8133 37.0545 31.7133C36.9545 31.5133 36.7545 31.4133 36.5545 31.4133C36.3545 31.4133 36.1545 31.5133 36.0545 31.6133C35.9545 31.7133 35.8545 31.9133 35.8545 32.2133V34.3133H34.8545V30.7133H35.7545V31.2133C35.8545 31.0133 35.9545 30.9133 36.0545 30.8133C36.2545 30.6133 36.5545 30.6133 36.8545 30.6133C37.2545 30.6133 37.5545 30.7133 37.7545 30.9133C38.0545 31.1133 38.1545 31.4133 38.1545 31.8133Z" fill="#308BE3"/>
<path d="M41.3551 33.3133H42.3551C42.2551 33.7133 42.0551 34.0133 41.6551 34.2133C41.3551 34.4133 41.0551 34.5133 40.7551 34.5133C40.1551 34.5133 39.7551 34.4133 39.4551 34.1133C39.1551 33.8133 38.9551 33.2133 38.9551 32.5133C38.9551 31.9133 39.1551 31.5133 39.4551 31.1133C39.7551 30.8133 40.1551 30.6133 40.6551 30.6133C41.1551 30.6133 41.4551 30.7133 41.7551 31.0133C42.1551 31.3133 42.3551 31.9133 42.3551 32.6133V32.8133H39.8551C39.8551 33.1133 39.9551 33.3133 40.1551 33.5133C40.2551 33.6133 40.4551 33.7133 40.7551 33.7133C40.8551 33.7133 41.0551 33.7133 41.1551 33.6133C41.2551 33.5133 41.3551 33.4133 41.3551 33.3133ZM39.9551 32.1133H41.4551C41.4551 31.8133 41.3551 31.6133 41.1551 31.5133C41.0551 31.4133 40.8551 31.3133 40.6551 31.3133C40.2551 31.4133 40.0551 31.6133 39.9551 32.1133Z" fill="#308BE3"/>
<path d="M42.9548 25.5144C42.5548 25.1144 41.6548 24.4144 40.5548 25.1144C40.1548 25.3144 38.8548 26.8144 40.1548 28.4144C40.7548 29.0144 41.3548 28.9144 42.6548 29.0144C43.0548 29.0144 45.6548 29.7144 45.5548 31.4144C45.5548 31.9144 45.6548 32.9144 44.7548 33.0144C43.9548 33.1144 42.6548 33.8144 43.7548 35.1144C43.9548 35.4144 45.3548 35.9144 45.6548 34.6144C45.7548 34.0144 45.4548 32.8144 46.2548 32.7144C47.0548 32.6144 48.1548 32.9144 48.4548 31.4144C48.6548 30.5144 49.0548 29.5144 49.9548 29.0144C50.4548 28.9144 50.5548 29.1144 51.8548 28.8144C52.1548 28.7144 53.4548 27.9144 52.7548 26.2144C52.5548 25.8144 51.5548 24.7144 50.3548 25.5144C50.1548 25.7144 49.6548 26.2144 49.6548 27.3144C49.5548 28.0144 49.2548 30.0144 46.8548 30.0144C46.2548 29.9144 44.6548 29.6144 43.8548 27.5144C43.3548 26.3144 43.1548 25.8144 42.9548 25.5144Z" fill="#328DDD"/>
</g>
<defs>
<clipPath id="clip0">
<rect width="58.8" height="58.8" fill="white" transform="translate(0.855469 0.916016)"/>
</clipPath>
</defs>
</svg>
